# xmcd
#
# Track frame offsets: 
#        150
#        7207
#        23754
#        37351
#        54277
#        69986
#        85531
#        103677
#        120310
#        139707
#        155333
#        172620
#        195157
#        210847
#        235560
#
# Disc length: 3313 seconds
#
# Revision: 0
# Processed by: cddbd v1.5.2PL0 Copyright (c) Steve Scherf et al.
# Submitted via: ExactAudioCopy v0.99pb5
#
DISCID=a90cef0f
DTITLE=Avril Lavigne - Goodbye Lullaby
DYEAR=2011
DGENRE=Pop
TTITLE0=Black Star
TTITLE1=What The Hell
TTITLE2=Push
TTITLE3=Wish You Were Here
TTITLE4=Smile
TTITLE5=Stop Standing There
TTITLE6=I Love You
TTITLE7=Everybody Hurts
TTITLE8=Not Enough
TTITLE9=4 Real
TTITLE10=Darlin
TTITLE11=Alice(Extended Version)
TTITLE12=Remember When
TTITLE13=Goodbye
TTITLE14=Knockin' On Heaven's Door
EXTD=
EXTT0=
EXTT1=
EXTT2=
EXTT3=
EXTT4=
EXTT5=
EXTT6=
EXTT7=
EXTT8=
EXTT9=
EXTT10=
EXTT11=
EXTT12=
EXTT13=
EXTT14=
PLAYORDER=
